<svg xmlns="http://www.w3.org/2000/svg" viewBox="0 0 215.74 64.87"><g id="Layer_2" data-name="Layer 2"><g id="Layer_2-2" data-name="Layer 2"><g id="noun_coding_1050804"><path d="M21.14,19.81a1.74,1.74,0,0,0-2.42.07L8,31.2a1.7,1.7,0,0,0,0,2.34L18.72,44.86a1.84,1.84,0,0,0,1.24.55,1.65,1.65,0,0,0,1.18-.48,1.74,1.74,0,0,0,.07-2.42L11.68,32.37l9.53-10.14A1.67,1.67,0,0,0,21.14,19.81Zm19.11.07a1.71,1.71,0,1,0-2.48,2.35l9.52,10.14L37.77,42.51a1.74,1.74,0,0,0,.07,2.42,1.61,1.61,0,0,0,1.17.48,1.7,1.7,0,0,0,1.24-.55L51,33.54a1.7,1.7,0,0,0,0-2.34Zm-7.66-.34a1.73,1.73,0,0,0-2.07,1.24L25.14,43.07a1.74,1.74,0,0,0,1.24,2.07c.14,0,.28.07.42.07a1.71,1.71,0,0,0,1.65-1.32l5.38-22.28A1.67,1.67,0,0,0,32.59,19.54Zm26.88-.49a12.27,12.27,0,0,0-5.7-7.31C50.85,10,47.93,8.36,45,6.7s-5.84-3.31-8.76-5A12.66,12.66,0,0,0,30.41,0a11.93,11.93,0,0,0-6.53,1.51c-1.67,1-3.34,1.87-4.94,2.83C14.77,6.7,10.46,9.18,6.22,11.67A12,12,0,0,0,0,22.36c-.07,4.49,0,9,0,13.46v6.69A11.41,11.41,0,0,0,.59,46.1a12.74,12.74,0,0,0,5.63,7.11c2.85,1.65,5.77,3.31,8.69,5s5.84,3.32,8.69,5a12.22,12.22,0,0,0,5.63,1.73h1a12,12,0,0,0,6.05-1.59C42,60,47.86,56.52,53.7,53.21a11.56,11.56,0,0,0,4.52-4.42A11.24,11.24,0,0,0,60,42.92V22.29A14.32,14.32,0,0,0,59.47,19.05ZM56.1,42.87A8,8,0,0,1,54.71,47a7.81,7.81,0,0,1-3.19,3.2C45.61,53.58,39.71,57.06,34,60.4a9.07,9.07,0,0,1-5,1.11,9.27,9.27,0,0,1-4.1-1.32c-2.92-1.67-5.76-3.34-8.68-5s-5.77-3.34-8.68-5a8.88,8.88,0,0,1-4.1-5.29A6.67,6.67,0,0,1,3,42.38V22.07a8.58,8.58,0,0,1,4.52-7.86C11.71,11.7,16,9.27,20.19,6.83c1.67-1,3.33-1.88,5-2.85a7.67,7.67,0,0,1,4.24-1.11h.41a9,9,0,0,1,4.24,1.25C37,5.86,39.92,7.53,42.83,9.2s5.84,3.34,8.76,5.08a9,9,0,0,1,4.09,5.42A8.42,8.42,0,0,1,56,22.07v20.8Z"/></g><path d="M76.54,21.12H67.27V15.65H91.56v5.47H82.3V49.25H76.54Z"/><path d="M109.13,15.65h6.43V36.58h3.7V42h-3.7v7.29H109.8V42H92Zm.77,20.93v-13l-8.45,13Z"/><path d="M151.71,32.45c0,9.7-6.82,16.8-16.61,16.8H124.25V15.65H135.1C144.89,15.65,151.71,22.76,151.71,32.45Zm-5.86,0c0-6.14-4.13-11.33-10.66-11.33H130V43.78h5.18C141.72,43.78,145.85,38.55,145.85,32.45Z"/><path d="M159.63,42.25a3.79,3.79,0,1,1-3.8,3.79A3.77,3.77,0,0,1,159.63,42.25Z"/><path d="M170.14,15.65h5.76v33.6h-5.76Z"/><path d="M215.74,32.45c0,9.94-7.2,17.38-17,17.38s-17-7.44-17-17.38,7.2-17.37,17-17.37S215.74,22.52,215.74,32.45Zm-5.86,0c0-6.48-4.37-11.9-11.13-11.9S187.61,26,187.61,32.45,192,44.36,198.75,44.36,209.88,38.93,209.88,32.45Z"/></g></g></svg>